<svg xmlns="http://www.w3.org/2000/svg" viewBox="0 0 1024 1024">
  <defs>
    <linearGradient id="bg" x1="0" y1="0" x2="0" y2="1">
      <stop offset="0" stop-color="#1e293b"/>
      <stop offset="1" stop-color="#0f172a"/>
    </linearGradient>
    <linearGradient id="line" x1="0" y1="0" x2="1" y2="0">
      <stop offset="0" stop-color="#22d3ee"/>
      <stop offset="1" stop-color="#34d399"/>
    </linearGradient>
  </defs>
  <path d="M 100,286 C 100,162 162,100 286,100 L 738,100 C 862,100 924,162 924,286 L 924,738 C 924,862 862,924 738,924 L 286,924 C 162,924 100,862 100,738 Z" fill="url(#bg)"/>
  <g stroke="url(#line)" stroke-width="30" fill="none" stroke-linecap="round">
    <path d="M 318,672 L 318,388 L 512,580 L 706,388 L 706,672"/>
  </g>
  <g>
    <circle cx="318" cy="672" r="52" fill="#22d3ee"/>
    <circle cx="318" cy="388" r="52" fill="#38bdf8"/>
    <circle cx="512" cy="580" r="58" fill="#34d399"/>
    <circle cx="706" cy="388" r="52" fill="#4ade80"/>
    <circle cx="706" cy="672" r="52" fill="#a3e635"/>
    <g fill="#0f172a">
      <circle cx="318" cy="672" r="22"/>
      <circle cx="318" cy="388" r="22"/>
      <circle cx="512" cy="580" r="25"/>
      <circle cx="706" cy="388" r="22"/>
      <circle cx="706" cy="672" r="22"/>
    </g>
  </g>
</svg>
