<svg xmlns="http://www.w3.org/2000/svg" viewBox="0 0 1024 1024">
  <defs>
    <linearGradient id="v6bg" x1="0" y1="0" x2="0" y2="1">
      <stop offset="0" stop-color="#fafafa"/>
      <stop offset="1" stop-color="#e8edf4"/>
    </linearGradient>
    <linearGradient id="v6flow" x1="0" y1="0" x2="1" y2="0">
      <stop offset="0" stop-color="#06b6d4"/>
      <stop offset="1" stop-color="#8b5cf6"/>
    </linearGradient>
  </defs>
  <path d="M 100,286 C 100,162 162,100 286,100 L 738,100 C 862,100 924,162 924,286 L 924,738 C 924,862 862,924 738,924 L 286,924 C 162,924 100,862 100,738 Z" fill="url(#v6bg)"/>
  <g fill="#334155">
    <rect x="208" y="252" width="430" height="46" rx="23"/>
    <rect x="208" y="354" width="560" height="46" rx="23"/>
    <rect x="208" y="456" width="340" height="46" rx="23"/>
  </g>
  <g stroke="url(#v6flow)" fill="none" stroke-linecap="round">
    <path d="M 208,648 C 340,584 430,712 564,648 C 690,588 760,668 820,628" stroke-width="56"/>
    <path d="M 246,772 C 356,724 436,816 556,772 C 668,730 736,792 790,758" stroke-width="34" opacity="0.35"/>
  </g>
</svg>
